<svg xmlns="http://www.w3.org/2000/svg" width="24" height="24" viewBox="0 0 24 24">
  <path d="M12,19.445678 C12.1033571,19.445678 12.2051943,19.4167988 12.3055115,19.3590404 C12.4058287,19.3012821 12.5411049,19.1903251 12.7113402,19.0261697 L14.8271213,17.001586 C14.9000793,16.9286281 14.9411182,16.8435104 14.9502379,16.7462331 C14.9593577,16.6489559 14.9335184,16.5607983 14.8727201,16.4817605 C14.5808882,16.1108908 14.1811393,15.7901798 13.6734734,15.5196273 C13.1658076,15.2490748 12.6079831,15.1137986 12,15.1137986 C11.3798573,15.1137986 10.8113931,15.2536347 10.2946075,15.5333069 C9.77782183,15.8129791 9.376553,16.1473698 9.09080095,16.536479 C9.04216231,16.609437 9.02696273,16.6869548 9.04520222,16.7690325 C9.06344171,16.8511102 9.10904044,16.9286281 9.18199841,17.001586 L11.27954,19.0261697 C11.4558551,19.1842453 11.5956913,19.2936823 11.6990484,19.3544806 C11.8024055,19.4152789 11.9027227,19.445678 12,19.445678 Z"/>
</svg>
