<?xml version="1.0" standalone="no"?>
<!DOCTYPE svg PUBLIC "-//W3C//DTD SVG 20010904//EN"
 "http://www.w3.org/TR/2001/REC-SVG-20010904/DTD/svg10.dtd">
<svg version="1.0" xmlns="http://www.w3.org/2000/svg"
 width="50.000000pt" height="50.000000pt" viewBox="0 0 50.000000 50.000000"
 preserveAspectRatio="xMidYMid meet">

<g transform="translate(0.000000,50.000000) scale(0.100000,-0.100000)"
fill="#000000" stroke="none">
<path d="M75 459 c22 -67 17 -124 -19 -228 -20 -57 -36 -114 -36 -128 0 -14
13 -37 29 -54 l29 -29 142 0 142 0 29 29 c16 17 29 40 29 54 0 14 -16 70 -35
126 -41 116 -42 132 -15 156 17 15 22 16 36 4 22 -18 53 -87 54 -116 0 -13 5
-23 10 -23 27 0 -3 99 -46 148 -31 36 -33 36 -51 20 -26 -24 -33 -23 -33 6 0
22 -6 25 -62 34 -35 6 -96 14 -137 18 l-74 7 8 -24z m160 -14 c69 -8 85 -14
85 -31 0 -11 -20 -14 -100 -14 -88 0 -100 2 -110 19 -19 36 -12 43 33 37 23
-3 65 -8 92 -11z m95 -75 c0 -6 -43 -10 -110 -10 -67 0 -110 4 -110 10 0 6 43
10 110 10 67 0 110 -4 110 -10z m12 -80 l16 -50 -138 0 -138 0 16 50 16 50
106 0 106 0 16 -50z m41 -117 c23 -65 21 -88 -9 -112 -24 -19 -40 -21 -154
-21 -114 0 -130 2 -154 21 -30 24 -32 47 -9 112 l17 47 146 0 146 0 17 -47z"/>
</g>
</svg>
