<?xml version="1.0" standalone="no"?>
<!DOCTYPE svg PUBLIC "-//W3C//DTD SVG 20010904//EN"
 "http://www.w3.org/TR/2001/REC-SVG-20010904/DTD/svg10.dtd">
<svg version="1.0" xmlns="http://www.w3.org/2000/svg"
 width="50.000000pt" height="50.000000pt" viewBox="0 0 50.000000 50.000000"
 preserveAspectRatio="xMidYMid meet">

<g transform="translate(0.000000,50.000000) scale(0.100000,-0.100000)"
fill="#000000" stroke="none">
<path d="M250 464 c0 -9 -13 -32 -30 -51 -29 -33 -40 -73 -20 -73 6 0 10 7 10
16 0 9 14 32 30 51 29 33 40 73 20 73 -5 0 -10 -7 -10 -16z"/>
<path d="M300 419 c0 -6 -9 -22 -20 -36 -21 -28 -26 -53 -10 -53 6 0 10 5 10
11 0 6 9 22 20 36 21 28 26 53 10 53 -5 0 -10 -5 -10 -11z"/>
<path d="M100 234 c0 -72 10 -111 34 -126 6 -4 57 -8 113 -8 l102 0 16 29 c8
16 23 32 34 36 23 7 44 54 39 87 -2 17 -10 24 -30 26 -16 2 -28 9 -28 18 0 11
-25 14 -140 14 l-140 0 0 -76z m320 5 c0 -25 -17 -59 -30 -59 -6 0 -10 18 -10
40 0 33 3 40 20 40 14 0 20 -7 20 -21z"/>
<path d="M60 66 c0 -36 40 -46 180 -46 140 0 180 10 180 46 0 12 -30 14 -180
14 -150 0 -180 -2 -180 -14z"/>
</g>
</svg>
