<svg xmlns="http://www.w3.org/2000/svg" width="24" height="24" viewBox="0 0 24 24">
  <path d="M16.7741872,14.8447661 C16.886664,14.8417261 16.9885012,14.7946075 17.0796987,14.70341 L18.4294211,13.3810468 C18.5023791,13.3080888 18.5434179,13.2229712 18.5525377,13.1256939 C18.5616574,13.0284166 18.5297383,12.9372191 18.4567803,12.8521015 C18.0190325,12.3170764 17.4672879,11.8398097 16.8015464,11.4203013 C16.1358049,11.000793 15.3940656,10.6694422 14.5763283,10.426249 C13.7585911,10.1830558 12.899815,10.0614592 12,10.0614592 C11.100185,10.0614592 10.2414089,10.1830558 9.42367169,10.426249 C8.60593444,10.6694422 7.86419508,11.000793 7.19845361,11.4203013 C6.53271213,11.8398097 5.97792757,12.3170764 5.53409992,12.8521015 C5.47330161,12.9372191 5.44594237,13.0253767 5.4520222,13.1165741 C5.45810204,13.2077716 5.50066085,13.2959292 5.57969865,13.3810468 L6.92030135,14.7125297 C7.01757864,14.8037272 7.12397568,14.846286 7.23949247,14.8402062 C7.35500925,14.8341264 7.45836638,14.7794079 7.54956384,14.6760508 C8.07242929,14.0984668 8.73057098,13.62576 9.5239889,13.2579302 C10.3174068,12.8901004 11.1427439,12.7092255 12,12.7153053 C12.8694158,12.7092255 13.7008327,12.8946603 14.4942506,13.2716098 C15.2876685,13.6485593 15.9488501,14.1258261 16.4777954,14.70341 C16.562913,14.8006873 16.6617103,14.847806 16.7741872,14.8447661 Z M12,19.445678 C12.1033571,19.445678 12.2051943,19.4167988 12.3055115,19.3590404 C12.4058287,19.3012821 12.5411049,19.1903251 12.7113402,19.0261697 L14.8271213,17.001586 C14.9000793,16.9286281 14.9411182,16.8435104 14.9502379,16.7462331 C14.9593577,16.6489559 14.9335184,16.5607983 14.8727201,16.4817605 C14.5808882,16.1108908 14.1811393,15.7901798 13.6734734,15.5196273 C13.1658076,15.2490748 12.6079831,15.1137986 12,15.1137986 C11.3798573,15.1137986 10.8113931,15.2536347 10.2946075,15.5333069 C9.77782183,15.8129791 9.376553,16.1473698 9.09080095,16.536479 C9.04216231,16.609437 9.02696273,16.6869548 9.04520222,16.7690325 C9.06344171,16.8511102 9.10904044,16.9286281 9.18199841,17.001586 L11.27954,19.0261697 C11.4558551,19.1842453 11.5956913,19.2936823 11.6990484,19.3544806 C11.8024055,19.4152789 11.9027227,19.445678 12,19.445678 Z"/>
</svg>
