<?xml version="1.0" standalone="no"?>
<!DOCTYPE svg PUBLIC "-//W3C//DTD SVG 20010904//EN"
 "http://www.w3.org/TR/2001/REC-SVG-20010904/DTD/svg10.dtd">
<svg version="1.0" xmlns="http://www.w3.org/2000/svg"
 width="100.000000pt" height="100.000000pt" viewBox="0 0 100.000000 100.000000"
 preserveAspectRatio="xMidYMid meet">

<g transform="translate(0.000000,100.000000) scale(0.100000,-0.100000)"
fill="#000000" stroke="none">
<path d="M281 928 c-46 -16 -132 -97 -164 -155 -72 -133 -74 -301 -6 -435 30
-58 102 -132 151 -154 23 -10 58 -36 76 -56 47 -52 103 -71 194 -67 200 11
396 207 406 405 5 88 -9 134 -55 185 -48 53 -104 72 -197 67 l-75 -3 -23 49
c-26 56 -90 126 -138 151 -41 21 -125 28 -169 13z m132 -41 c49 -21 95 -65
127 -121 17 -28 30 -55 30 -61 -1 -5 -28 -26 -61 -45 -77 -44 -149 -122 -191
-207 -26 -54 -34 -83 -38 -150 l-5 -84 -33 25 c-76 56 -130 162 -139 277 -19
227 154 431 310 366z m403 -232 c124 -73 110 -277 -31 -424 -79 -83 -159 -123
-255 -129 -96 -5 -152 21 -188 89 -20 38 -23 54 -19 119 5 92 36 159 110 238
86 90 171 131 276 132 51 0 73 -5 107 -25z"/>
<path d="M310 828 c-40 -65 -34 -196 10 -250 32 -39 43 -11 20 50 -25 66 -25
115 0 171 30 65 6 88 -30 29z"/>
<path d="M807 593 c-2 -5 -7 -21 -11 -37 -17 -70 -67 -110 -181 -147 -95 -30
-138 -52 -168 -89 -45 -53 -63 -155 -27 -155 9 0 17 15 22 43 15 89 62 128
204 171 54 16 84 32 123 67 51 46 80 105 68 138 -7 17 -23 21 -30 9z"/>
</g>
</svg>
